<svg width="40" height="40" viewBox="0 0 40 40" fill="none" xmlns="http://www.w3.org/2000/svg">
<g id="Comentarios">
<path id="Vector" d="M36.6667 5.68325L36.4667 3.58325L34.4667 4.24992C31.039 5.44083 27.3788 5.80628 23.7834 5.31659C20.0053 4.73027 16.1382 5.25128 12.65 6.81659C10.8008 7.604 9.17794 8.84144 7.92914 10.4163C6.68035 11.9911 5.8453 13.8533 5.50002 15.8333C5.05232 18.3911 5.27629 21.0213 6.15002 23.4666C6.71261 22.1967 7.37002 20.971 8.11669 19.7999C9.81035 17.308 12.1571 15.3302 14.9 14.0833C17.5424 12.8768 20.4307 12.306 23.3334 12.4166C20.5701 12.8391 17.925 13.8324 15.5667 15.3333C14.4291 16.048 13.3874 16.9049 12.4667 17.8833C11.5861 18.8611 10.8097 19.928 10.15 21.0666C8.9109 23.4466 8.02921 25.9962 7.53335 28.6333C6.99887 31.2788 6.70876 33.9679 6.66669 36.6666H10C10.1567 34.2463 10.4853 31.8402 10.9834 29.4666C13.2957 30.7153 15.8889 31.3521 18.5167 31.3166C20.9675 31.3149 23.3931 30.8219 25.65 29.8666C38.3334 24.4499 36.6667 6.43325 36.6667 5.68325Z" fill="#009B9B" stroke="#212121" stroke-linejoin="round"/>
</g>
</svg>
